<svg width="512" height="512" viewBox="0 0 512 512" xmlns="http://www.w3.org/2000/svg">
  <!-- 背景圆形 -->
  <circle cx="256" cy="256" r="240" fill="#1a1a1a" stroke="#333" stroke-width="8"/>
  
  <!-- 兔子耳朵 -->
  <ellipse cx="200" cy="180" rx="25" ry="60" fill="#f0f0f0" transform="rotate(-15 200 180)"/>
  <ellipse cx="312" cy="180" rx="25" ry="60" fill="#f0f0f0" transform="rotate(15 312 180)"/>
  
  <!-- 兔子头部 -->
  <circle cx="256" cy="280" r="120" fill="#f0f0f0"/>
  
  <!-- 眼睛 -->
  <circle cx="220" cy="250" r="15" fill="#333"/>
  <circle cx="292" cy="250" r="15" fill="#333"/>
  
  <!-- 鼻子 -->
  <ellipse cx="256" cy="280" rx="8" ry="6" fill="#ff69b4"/>
  
  <!-- 嘴巴 -->
  <path d="M 240 300 Q 256 320 272 300" stroke="#333" stroke-width="3" fill="none"/>
  
  <!-- 工具图标 - 扳手 -->
  <g transform="translate(256, 350) scale(0.8)">
    <path d="M -30 -20 L -20 -30 L -10 -20 L 0 -30 L 10 -20 L 20 -30 L 30 -20 L 20 -10 L 10 -20 L 0 -10 L -10 -20 L -20 -10 Z" 
          fill="#4a90e2" stroke="#2c5aa0" stroke-width="2"/>
    <circle cx="0" cy="0" r="8" fill="#4a90e2" stroke="#2c5aa0" stroke-width="2"/>
  </g>
  
  <!-- 装饰性元素 -->
  <circle cx="150" cy="150" r="3" fill="#ffd700" opacity="0.8"/>
  <circle cx="362" cy="150" r="3" fill="#ffd700" opacity="0.8"/>
  <circle cx="150" cy="400" r="3" fill="#ffd700" opacity="0.8"/>
  <circle cx="362" cy="400" r="3" fill="#ffd700" opacity="0.8"/>
</svg>
